<?xml version="1.0" encoding="utf-8"?>
<!-- Generator: Adobe Illustrator 27.0.0, SVG Export Plug-In . SVG Version: 6.00 Build 0)  -->
<svg version="1.1" id="Layer_1" xmlns="http://www.w3.org/2000/svg" xmlns:xlink="http://www.w3.org/1999/xlink" x="0px" y="0px"
	 viewBox="0 0 690.9 557.6" style="enable-background:new 0 0 690.9 557.6;" xml:space="preserve">
<style type="text/css">
	.st0{fill:#529040;}
	.st1{fill:#06659E;}
</style>
<g id="b">
	<g>
		<g>
			<path class="st0" d="M452.2,233.9c0-0.3-0.6-0.5-1.8-1.5c-6.6,18.4-13.6,36.3-31.6,46.5l0-0.1c-10.3,7.2-20.9,13.2-34.7,8.7
				c4.4-11.2,21.4-13.9,17.7-29.1c-29.3,8.1-51,32.1-53.5,60.6c0-0.9-0.1-1.7-0.1-2.6c-1-15.2-8.8-28.7-21.1-38
				c-9.9-7.5-20.4-14-31.7-21.7c-4.3,16.8,12.4,19.5,16.9,30c-5,3.3-10.3,3.3-15.6,1.6c-21.5-6.9-36.8-20.6-45.1-41.8
				c-1.8-4.6-3.6-9.1-5.4-13.7c-0.8,0.1-1.5,0.3-2.3,0.4c0.5,5.2,0.4,10.5,1.6,15.5c6.6,26.7,23.7,45.3,47,58.8
				c6.6,3.8,13.2,7.9,19.5,12.1c6.2,4.2,9.2,10.4,9.9,17.8c3.4,36.3-0.9,71.6-10.6,106.2c11.3,4.3,55,4.3,66.6,0
				c-3.1-12.9-10.5-33.7-11.9-44.9c-1.8-14.5-3.1-29.2-2.2-43.7c1-16.4,10.5-28.9,24.1-38c11.6-7.8,24.1-14.4,34.9-23.3
				c17.3-14.3,27.9-32.9,29.4-55.9C452.5,236.5,452.4,235.2,452.2,233.9L452.2,233.9z"/>
			<path class="st0" d="M301,39.9c-22.6,15.4-24.9,57.4-3.4,74.9c1.9-14.2,3.6-27.7,5.4-41.2l1.5,0.1c-0.8,14.4-1.6,28.9-2.4,42.9
				C321.6,105.4,327.9,60.8,301,39.9z"/>
			<path class="st0" d="M341.6,74.9c1.3-7.8,2.8-14.3,3.5-20.9c0.8-6.7,0.8-13.5,1.6-20.3c3.9,14.3-0.2,28.7-0.6,43.3
				c21.8-15.1,24.8-57.8-0.7-77C323.4,14.2,320.6,54.6,341.6,74.9L341.6,74.9z"/>
			<path class="st0" d="M389.7,27.3c-22.4,16.2-24.7,56-3.4,75c1.1-7.6,2.2-14.6,3-21.6c0.8-6.9,1.2-13.9,2.1-20.9
				c3.5,14.8,0.1,29.6-1.1,45C414,87.8,413.2,44.5,389.7,27.3L389.7,27.3z"/>
			<path class="st0" d="M284.3,136.9c-3.9-7-7.5-13.4-11-19.8c0.3-0.1,0.5-0.3,0.8-0.4c3.8,5.6,7.5,11.3,11.5,17.2
				c6.4-12.3-3.5-32.1-16.2-34c-1-0.1-2.7,0.8-3.1,1.6c-5.7,12.6,1.5,29.6,14.5,34.4C281.6,136.3,282.7,136.5,284.3,136.9
				L284.3,136.9z"/>
			<path class="st0" d="M502.2,268.2c11.2-5.6,21.4-10.6,31.5-15.7c0.3,0.4,0.6,0.9,0.9,1.3c-10.7,6.4-21.4,12.8-32,19.1
				c23.3,11,52.7-9.3,57-39.5C538.7,221.6,505.8,240.6,502.2,268.2L502.2,268.2z"/>
			<path class="st0" d="M238.5,184.6c4.7-17.4-4.5-33.4-18.9-34.9c-7.8,14.4,1.9,35.5,17.4,36.9c-2.1-3.4-4.2-6.5-6.1-9.8
				c-1.8-3.3-3.4-6.7-4.6-10.4C230.3,172.3,234.2,178.1,238.5,184.6L238.5,184.6z"/>
			<path class="st0" d="M332.2,158.1c5.3-19.8-5.1-38-21.5-39.7c-8.9,16.4,2.1,40.4,19.8,42c-2.4-3.9-4.8-7.4-6.9-11.1
				c-2.1-3.7-3.9-7.6-5.2-11.8C322.9,144.1,327.3,150.7,332.2,158.1L332.2,158.1z"/>
			<path class="st0" d="M465.5,82.3c-17.5,18-10.6,50.6,15.1,66.1c-1.9-13.2-3.6-24.9-5.3-36.7c0.5-0.1,1-0.2,1.5-0.3
				c2.8,12.5,5.6,25,8.6,38.3c6.9-8.1,9.4-17.5,8.3-27.7C491.6,103.7,481.8,90.6,465.5,82.3L465.5,82.3z"/>
			<path class="st0" d="M518.6,127.4c-24.4,9.1-33.6,39-18.9,65.2c5-12.9,9.5-24.6,14-36.4l1.4,0.4c-3.8,12.8-7.7,25.6-11.5,38.3
				C521.3,192.6,540.3,157.1,518.6,127.4L518.6,127.4z"/>
			<path class="st0" d="M459.7,253.1c8.7-6.2,17.5-12.3,26.2-18.5c0.4,0.4,0.7,0.9,1.1,1.3c-9,7.5-18.1,15-27.7,23.1
				c16.3,2.6,28.7-3,38.8-14.6c7.1-8.2,10.7-17.9,11.9-28.6c0.6-5.2-1.5-6.9-6.3-7.4c-15-1.3-32.5,9-39.7,24.3
				c-2.8,6-4.3,12.6-6.4,18.9C458.3,252.1,459,252.6,459.7,253.1L459.7,253.1z"/>
			<path class="st0" d="M236.6,260.6c-10.4-6.9-19.8-13.1-29.3-19.4c0.3-0.5,0.6-1,0.9-1.5c9.2,5.1,18.3,10.1,27.5,15.2
				c0.5-0.4,1.1-0.8,1.6-1.2c-1.4-4-2.5-8-4.2-11.9c-7.8-17.8-26.9-29.1-44.7-26.9c-5.7,0.7-7.7,2.9-6.6,8.9
				c4.8,24.3,26.6,41.2,49.5,38C232.8,261.8,234.3,261.2,236.6,260.6L236.6,260.6z"/>
			<path class="st0" d="M461.9,180.6c-4.7,8.4-9.5,16.8-14.2,25.2c11.5-1.7,21.6-10.6,23.9-22.9c1.2-6.7,0.1-13.9-0.2-20.8
				c-0.2-3.3-2.2-4.1-5.5-3.2c-11.7,3.2-21.2,15.3-22,29c-0.2,4.5,0.4,9,0.7,13.5c0.6,0.2,1.2,0.4,1.7,0.6
				c4.9-7.4,9.8-14.7,14.6-22.1C461.2,180.2,461.6,180.4,461.9,180.6L461.9,180.6z"/>
			<path class="st0" d="M137.1,236.3c3.8,31.3,34.9,50.3,57.2,40.3c-11.3-6.8-22.3-13.5-33.3-20.1c0.2-0.4,0.5-0.9,0.7-1.3
				c10.5,5.3,21,10.6,31.5,15.9c0.4-0.5,0.9-1,1.4-1.6c-2.7-12.1-9.4-21.8-19.8-28.8C163.2,233,150.8,230.9,137.1,236.3L137.1,236.3
				z"/>
			<path class="st0" d="M212.4,141.9c3-12.3,5.9-24.1,8.9-35.9c0.2-0.7,0.9-1.2,1.3-1.7c-1.6,11.7-3.3,23.4-5.1,35.9
				c20-9.2,32.9-39.8,18.4-61.3c-1.1-1.6-4.7-3.2-6-2.6c-23.5,12.4-33.4,42.6-19.3,63.6C211.2,140.7,211.9,141.3,212.4,141.9
				L212.4,141.9z"/>
			<path class="st0" d="M187.3,167.9c3.9,10.3,7.8,20.6,11.9,31.7c15.1-21.5,7-56.7-17.2-64.6c-15.4,14.8-15.9,57.1,13.8,68.2
				c-3.4-11.7-6.8-23.3-10.2-34.9C186.2,168.2,186.8,168.1,187.3,167.9L187.3,167.9z"/>
			<path class="st0" d="M400.5,134.7c4.5-6.8,8.5-12.9,12.6-19c0.1,0,0.3,0.1,0.4,0.1c-1,2.3-1.8,4.7-3,6.9
				c-1.3,2.5-2.8,4.9-4.2,7.4c-1.4,2.3-2.9,4.5-4.4,6.9c7.6,0.2,17.2-7.1,19.6-17.9c1.3-5.6,0.4-11.7,0.2-17.5
				c-0.1-3-2.1-3.7-4.8-2.8c-8.6,2.6-13.9,8.6-16.6,16.8C398.3,121.3,397.9,127.5,400.5,134.7L400.5,134.7z"/>
			<path class="st0" d="M255.5,288.5c-7.8,2-15.3,3.9-22.8,5.8c-0.1-0.5-0.3-0.9-0.4-1.4c6.7-2.4,13.4-4.7,20.5-7.2
				c-14.9-11.7-37.1-6.5-45.8,10C220.7,309.9,247.9,306.1,255.5,288.5L255.5,288.5z"/>
			<path class="st0" d="M464.4,340.2c6.6-16.8-5.6-35.1-26.6-39.4c3.7,6.9,7,13.2,10.4,19.5c-0.4,0.2-0.7,0.4-1.1,0.7
				c-4.1-6.2-8.3-12.4-12.5-18.7C426.8,316,443,339.9,464.4,340.2L464.4,340.2z"/>
			<path class="st0" d="M277.3,308.9c-4.9,7.2-9.4,13.9-13.9,20.6c-0.3-0.2-0.7-0.5-1-0.7c3.6-6.6,7.3-13.2,11.1-20
				c-18.8,0.8-33.2,22-26.5,38.3C266,348.3,283.9,326.3,277.3,308.9L277.3,308.9z"/>
			<path class="st0" d="M475.2,289.8c-8-2-15.9-3.9-23.8-5.9c4.2,17.1,34.5,20.6,47.8,7.8c-6-16.7-30-22.9-45.8-10.7
				c7.7,2.6,14.8,5,21.9,7.4C475.3,288.9,475.3,289.3,475.2,289.8L475.2,289.8z"/>
			<path class="st0" d="M436.8,75.1c-1.7,6-3.3,11.9-5,18c14.7-4.3,16.7-26.7,8.9-37c-0.7-1-4.5-0.9-5.9,0.1
				c-7.5,5.1-10.4,12.8-9.9,21.6c0.2,4.2,1.6,8.4,2.5,12.6c0.6,0.1,1.3,0.2,1.9,0.3c2.2-5.3,4.4-10.6,6.6-15.8
				C436.3,74.9,436.6,75,436.8,75.1z"/>
			<path class="st0" d="M268.3,83.8c8.2-15.2,3.6-31.5-9.9-37.2c-11,12.1-7.7,32,7.3,39.3c-1.6-5.4-3-10.3-4.4-15.2
				c0.4-0.1,0.8-0.3,1.2-0.4C264.3,74.7,266.3,79,268.3,83.8z"/>
			<path class="st0" d="M534.2,214.4c13.6-0.7,24.1-20.7,16.3-35.8c-14.9,2.6-23.2,17.1-18.4,33.4c2.8-3.6,5.2-6.9,7.7-10.1
				c0.3,0.2,0.6,0.4,1,0.5C538.6,206.3,536.5,210.2,534.2,214.4L534.2,214.4z"/>
			<path class="st0" d="M348.8,105.3c0.6,6.2,1.2,12.4,1.9,19.8c5.4-4.3,6.7-10,6.6-15.6c-0.1-10.2-4.5-18.4-13.3-23.9
				c-11.1,10.1-10,27.2,2.9,38.2c0-6.6,0-12.5,0-18.4C347.5,105.4,348.1,105.4,348.8,105.3L348.8,105.3z"/>
			<path class="st0" d="M165.7,214.3c-2.8-4.9-5.4-9.4-7.9-13.8c0.3-0.2,0.6-0.4,1-0.6c2.9,3.8,5.7,7.7,8.9,11.9
				c5.3-14.9-2.5-29-17.5-33.2C141.5,188.2,149.8,213.8,165.7,214.3L165.7,214.3z"/>
		</g>
		<path class="st1" d="M430.1,185c-6.9,0-13.6,0.7-20.1,2l7.3-36.3c0.5-2.4-1.1-4.8-3.5-5.3c-2.4-0.5-4.8,1.1-5.3,3.5l-8.1,40.3
			c-7.7,2.2-14.9,5-21.6,8.3l9.4-46.8c0.5-2.4-1.1-4.8-3.5-5.3c-2.4-0.5-4.8,1.1-5.3,3.5L368.4,203c-15.9,9.1-28,19.7-34.9,26.3
			l-5.8-32.5c-0.3-1.8-1.7-3.2-3.5-3.6c-1.8-0.4-3.7,0.4-4.7,2l-21,32.3c-5-20-16.5-61.7-28.8-74.1c-1.8-1.8-4.6-1.8-6.4,0
			c-1.8,1.8-1.8,4.6,0,6.4c11.5,11.6,24.7,61.7,28.8,80c0.4,1.8,1.8,3.1,3.6,3.4c0.3,0.1,0.5,0.1,0.8,0.1c1.5,0,2.9-0.8,3.8-2.1
			l20.5-31.6l5.4,29.9c0.3,1.7,1.5,3.1,3.2,3.5c1.7,0.5,3.4-0.1,4.6-1.3c0.2-0.2,12.5-13.9,32-26.5l-4.5,22.6
			c-0.5,2.4,1.1,4.8,3.5,5.3c0.3,0.1,0.6,0.1,0.9,0.1c2.1,0,4-1.5,4.4-3.6l6.2-30.6c6.7-3.7,14.1-7,21.9-9.6l-7.7,38.4
			c-0.5,2.4,1.1,4.8,3.5,5.3c0.3,0.1,0.6,0.1,0.9,0.1c2.1,0,4-1.5,4.4-3.6l8.6-42.9c7.1-1.7,14.5-2.6,22.1-2.6c2.5,0,4.5-2,4.5-4.5
			S432.6,185,430.1,185L430.1,185z"/>
	</g>
</g>
<g id="c">
	<g>
		<path class="st1" d="M71.6,499.7c-0.7,0-1.4,0.2-2,0.6c-0.6,0.4-1,0.9-1.2,1.6l-14.8,43.8l-12.5-31.5c-0.2-0.7-0.6-1.2-1.2-1.6
			c-0.6-0.4-1.2-0.6-1.8-0.6c-0.7,0-1.3,0.2-1.9,0.6c-0.5,0.4-1,0.9-1.2,1.6l-12.8,31.6L7.2,501.8c-0.2-0.7-0.6-1.2-1.2-1.6
			c-0.6-0.4-1.2-0.6-1.9-0.6c-0.8,0-1.6,0.3-2.4,1s-1.2,1.5-1.2,2.6c0,0.3,0,0.7,0.2,1.1l17.5,51.1c0.2,0.7,0.6,1.2,1.2,1.5
			c0.6,0.4,1.2,0.6,1.8,0.6c0.7,0,1.3-0.2,1.9-0.5s1.1-0.9,1.4-1.6l13.4-32.3l13.4,32.3c0.3,0.7,0.8,1.2,1.4,1.6
			c0.6,0.4,1.2,0.5,1.9,0.5c0.6,0,1.2-0.3,1.8-0.6s1-0.9,1.2-1.5L75,504.4c0.1-0.4,0.2-0.9,0.2-1.2c0-1.1-0.4-2-1.1-2.5
			C73.3,500,72.5,499.7,71.6,499.7L71.6,499.7z"/>
		<path class="st1" d="M110.6,516.7c-2.1-1.6-5-2.3-8.6-2.3c-1.9,0-3.8,0.3-5.5,1c-1.8,0.7-3.3,1.6-4.8,2.8s-2.6,2.5-3.5,3.9
			c-0.1,0.1-0.1,0.2-0.2,0.3v-22.4c0-0.9-0.3-1.7-0.9-2.4c-0.6-0.6-1.4-1-2.4-1c-0.9,0-1.7,0.3-2.3,1s-0.9,1.4-0.9,2.4v54.3
			c0,0.9,0.3,1.7,0.9,2.4c0.6,0.7,1.4,1,2.3,1s1.7-0.3,2.3-1c0.6-0.7,0.9-1.5,0.9-2.4v-22.6c0-2.1,0.6-4,1.7-5.6
			c1.1-1.7,2.6-3,4.4-4c1.9-1,3.9-1.5,6.2-1.5c2.4,0,4.3,0.5,5.7,1.5c1.4,1,2.4,2.4,3,4c0.6,1.7,0.9,3.5,0.9,5.6v22.6
			c0,0.9,0.3,1.7,0.9,2.4c0.6,0.7,1.4,1,2.3,1s1.7-0.3,2.3-1c0.6-0.7,0.9-1.5,0.9-2.4v-22.6c0-3.2-0.4-6.1-1.4-8.7
			S112.7,518.3,110.6,516.7L110.6,516.7z"/>
		<path class="st1" d="M155.2,516.8c-3.2-1.9-6.8-2.9-10.8-2.9s-7.6,1-10.9,2.9c-3.2,1.9-5.8,4.6-7.7,7.9s-2.8,7.2-2.8,11.5
			s0.9,8.1,2.8,11.5c1.9,3.3,4.5,6,7.7,7.9c3.2,1.9,6.9,2.9,10.9,2.9s7.6-1,10.8-2.9s5.8-4.6,7.7-7.9c1.9-3.3,2.8-7.2,2.8-11.5
			s-0.9-8.1-2.8-11.5C161,521.4,158.4,518.8,155.2,516.8z M157.2,544.5c-1.3,2.4-3.1,4.3-5.3,5.7c-2.2,1.4-4.7,2.1-7.5,2.1
			s-5.3-0.7-7.5-2.1c-2.2-1.4-4-3.3-5.3-5.7s-2-5.2-2-8.3s0.7-6,2-8.4c1.3-2.4,3.1-4.3,5.3-5.7s4.7-2.1,7.5-2.1s5.3,0.7,7.5,2.1
			s4,3.3,5.3,5.7c1.3,2.4,1.9,5.2,1.9,8.4S158.5,542.1,157.2,544.5z"/>
		<path class="st1" d="M176.3,496.6c-0.9,0-1.7,0.3-2.4,1s-0.9,1.4-0.9,2.4v54.3c0,0.9,0.3,1.7,0.9,2.4c0.6,0.7,1.4,1,2.3,1
			s1.7-0.3,2.4-1s1-1.5,1-2.4v-54.3c0-0.9-0.3-1.7-0.9-2.4C178,497,177.2,496.6,176.3,496.6z"/>
		<path class="st1" d="M221.8,519.4c-1.8-1.8-3.9-3.1-6.3-4.1c-2.4-0.9-4.8-1.4-7.3-1.4c-3.4,0-6.6,0.9-9.7,2.7
			c-3.1,1.8-5.5,4.4-7.4,7.7s-2.8,7.5-2.8,12.2c0,4.3,0.9,8.1,2.8,11.3c1.8,3.3,4.4,5.8,7.7,7.7s7.1,2.8,11.5,2.8
			c3,0,5.8-0.7,8.4-1.9c2.6-1.3,4.7-2.8,6.3-4.5c0.9-0.7,1.3-1.5,1.3-2.5c0-0.8-0.3-1.4-0.8-2s-1.2-0.8-2-0.8
			c-0.7,0-1.4,0.2-2.1,0.7c-0.7,0.8-1.6,1.5-2.6,2.3c-1,0.7-2.3,1.4-3.7,1.8c-1.4,0.5-3.1,0.7-5,0.7c-3.1,0-5.8-0.7-8.1-2.1
			c-2.3-1.4-4.1-3.3-5.4-5.7c-1.1-2.1-1.8-4.5-1.9-7.2h29.9c0.9,0,1.6-0.3,2.3-0.9c0.7-0.6,1-1.3,1-2.2c-0.1-3.1-0.6-5.9-1.7-8.4
			C225.1,523.3,223.6,521.2,221.8,519.4L221.8,519.4z M199,523.8c1.3-1.3,2.7-2.2,4.4-2.8s3.2-0.9,4.9-0.9c2,0,4,0.4,5.8,1.3
			s3.4,2.1,4.7,3.8c1.3,1.6,2,3.5,2.3,5.8v0.7H195c0.2-1,0.4-2,0.8-2.9C196.6,526.7,197.7,525.1,199,523.8L199,523.8z"/>
		<path class="st1" d="M261.2,537.2c-1.3-0.9-2.8-1.7-4.4-2.3c-1.6-0.6-3.3-1.1-5.1-1.5c-1.9-0.5-3.7-1.1-5.3-1.7
			c-1.6-0.6-2.9-1.3-3.8-2.3c-0.9-0.9-1.4-2.1-1.5-3.6c0-1.6,0.4-2.8,1.3-3.8c0.9-0.9,1.9-1.5,3.2-1.9s2.6-0.6,3.9-0.6
			c2.1,0,4,0.4,5.7,1.1c1.7,0.7,3.2,1.8,4.3,3.2c0.5,0.5,1.1,0.8,1.9,0.8c0.7,0,1.4-0.1,2-0.6c0.8-0.7,1.1-1.4,1.1-2.2
			c-0.1-0.8-0.3-1.5-0.8-2.1c-1.2-1.5-2.6-2.7-4.2-3.5c-1.6-0.8-3.2-1.5-4.9-1.8c-1.7-0.4-3.3-0.5-4.8-0.5c-2.7,0-5.2,0.5-7.4,1.5
			s-4.1,2.4-5.4,4.2c-1.4,1.8-2,4-2,6.4c0,2.1,0.4,3.9,1.3,5.3c0.9,1.5,2,2.7,3.4,3.6c1.4,1,3,1.8,4.7,2.4c1.8,0.6,3.5,1.2,5.4,1.7
			c1.8,0.4,3.4,1,4.9,1.5c1.5,0.6,2.7,1.3,3.6,2.2c0.9,0.9,1.4,2.1,1.4,3.7s-0.5,2.9-1.4,3.8c-0.9,1-2,1.6-3.3,2
			c-1.3,0.4-2.6,0.6-3.9,0.7c-2.9,0-5.3-0.5-7.2-1.6s-3.7-2.5-5.3-4.3c-0.6-0.7-1.3-1-2-1.1s-1.4,0.1-1.9,0.5
			c-0.9,0.6-1.4,1.3-1.4,2.1c-0.1,0.8,0.2,1.5,0.7,2.3c2.1,2.8,4.7,4.7,7.6,5.8c2.9,1.2,5.9,1.7,8.9,1.7c2.7,0,5.2-0.5,7.5-1.4
			c2.3-1,4.2-2.4,5.6-4.2c1.4-1.8,2.1-4,2.1-6.5c0-2.2-0.4-4-1.1-5.5C263.5,539.3,262.5,538.1,261.2,537.2L261.2,537.2z"/>
		<path class="st1" d="M303.1,516.8c-3.2-1.9-6.8-2.9-10.8-2.9s-7.6,1-10.9,2.9s-5.8,4.6-7.7,7.9s-2.8,7.2-2.8,11.5s1,8.1,2.8,11.5
			c1.9,3.3,4.5,6,7.7,7.9c3.2,1.9,6.9,2.9,10.9,2.9s7.6-1,10.8-2.9s5.8-4.6,7.7-7.9c1.9-3.3,2.8-7.2,2.8-11.5s-1-8.1-2.8-11.5
			C308.9,521.4,306.3,518.8,303.1,516.8z M305.1,544.5c-1.3,2.4-3,4.3-5.3,5.7c-2.2,1.4-4.7,2.1-7.5,2.1s-5.3-0.7-7.5-2.1
			c-2.2-1.4-4-3.3-5.3-5.7s-2-5.2-2-8.3s0.7-6,2-8.4c1.3-2.4,3.1-4.3,5.3-5.7s4.7-2.1,7.5-2.1s5.3,0.7,7.5,2.1s4,3.3,5.3,5.7
			c1.3,2.4,1.9,5.2,1.9,8.4S306.4,542.1,305.1,544.5z"/>
		<path class="st1" d="M378,516.7c-2.1-1.6-4.9-2.3-8.6-2.3c-2.2,0-4.4,0.5-6.5,1.4s-3.9,2.1-5.5,3.5c-1.5,1.3-2.5,2.7-3.2,4.1
			c-0.9-2.6-2.2-4.7-4.1-6.2c-2.3-1.9-5.4-2.8-9.1-2.8c-2,0-3.8,0.4-5.6,1.1s-3.4,1.7-4.8,2.9c-1.4,1.2-2.5,2.4-3.4,3.8v-3.8
			c0-0.9-0.3-1.7-0.9-2.3c-0.6-0.6-1.4-1-2.4-1c-0.9,0-1.7,0.3-2.4,1s-1,1.4-1,2.3v35.9c0,0.9,0.3,1.7,1,2.4c0.6,0.7,1.4,1,2.4,1
			s1.7-0.3,2.4-1c0.6-0.7,1-1.5,1-2.4v-22.6c0-2.1,0.5-4,1.6-5.6c1.1-1.7,2.5-3,4.4-4c1.8-1,3.8-1.5,6-1.5c2.4,0,4.3,0.5,5.7,1.5
			c1.4,1,2.4,2.4,2.9,4c0.6,1.7,0.9,3.5,0.9,5.6v22.6c0,0.9,0.3,1.7,1,2.4c0.6,0.7,1.4,1,2.4,1c1,0,1.8-0.3,2.4-1
			c0.6-0.7,0.9-1.5,0.9-2.4v-22.3c0-2.1,0.5-4.1,1.6-5.8s2.6-3.1,4.5-4.1c1.9-1,3.9-1.5,6.2-1.5c2.4,0,4.3,0.5,5.7,1.5
			c1.4,1,2.4,2.4,3,4.1c0.6,1.7,1,3.7,1,5.8v22.3c0,0.9,0.3,1.7,0.9,2.4c0.6,0.7,1.4,1,2.4,1c0.9,0,1.7-0.3,2.4-1
			c0.6-0.7,1-1.5,1-2.4v-22.5c0-3.2-0.5-6.2-1.4-8.8C381.6,520.3,380.1,518.3,378,516.7L378,516.7z"/>
		<path class="st1" d="M425.6,519.4c-1.8-1.8-3.9-3.1-6.3-4.1c-2.4-0.9-4.8-1.4-7.3-1.4c-3.4,0-6.6,0.9-9.7,2.7
			c-3,1.8-5.5,4.4-7.4,7.7s-2.8,7.5-2.8,12.2c0,4.3,0.9,8.1,2.8,11.3c1.8,3.3,4.4,5.8,7.7,7.7s7.1,2.8,11.5,2.8c3,0,5.8-0.7,8.4-1.9
			c2.6-1.3,4.7-2.8,6.3-4.5c0.9-0.7,1.3-1.5,1.3-2.5c0-0.8-0.3-1.4-0.8-2s-1.2-0.8-2-0.8c-0.7,0-1.4,0.2-2.1,0.7
			c-0.7,0.8-1.6,1.5-2.6,2.3s-2.3,1.4-3.7,1.8s-3.1,0.7-5,0.7c-3.1,0-5.8-0.7-8.1-2.1c-2.3-1.4-4.1-3.3-5.4-5.7
			c-1.1-2.1-1.8-4.5-1.9-7.2h29.9c0.9,0,1.6-0.3,2.3-0.9c0.7-0.6,1-1.3,1-2.2c-0.1-3.1-0.6-5.9-1.7-8.4S427.4,521.2,425.6,519.4
			L425.6,519.4z M402.7,523.8c1.3-1.3,2.7-2.2,4.4-2.8s3.2-0.9,4.9-0.9c2,0,4,0.4,5.8,1.3s3.4,2.1,4.7,3.8s2,3.5,2.3,5.8v0.7h-26
			c0.2-1,0.5-2,0.8-2.9C400.4,526.7,401.5,525.1,402.7,523.8L402.7,523.8z"/>
		<path class="st1" d="M506.8,499.9c-0.9,0-1.7,0.3-2.4,1s-1,1.4-1,2.4v21.7h-31.1v-21.7c0-1-0.3-1.8-1-2.4s-1.5-1-2.4-1
			c-1,0-1.8,0.3-2.5,1s-1,1.4-1,2.4v50.9c0,0.9,0.3,1.7,0.9,2.4c0.6,0.7,1.4,1,2.5,1c0.9,0,1.7-0.3,2.4-1s1-1.5,1-2.4v-22.7h31.1
			v22.7c0,0.9,0.3,1.7,1,2.4c0.7,0.7,1.5,1,2.4,1c1,0,1.8-0.3,2.5-1s1-1.5,1-2.4v-50.9c0-1-0.3-1.8-1-2.4S507.8,499.9,506.8,499.9z"
			/>
		<path class="st1" d="M550.4,519.4c-1.8-1.8-3.9-3.1-6.3-4.1c-2.4-0.9-4.8-1.4-7.3-1.4c-3.4,0-6.6,0.9-9.7,2.7
			c-3,1.8-5.5,4.4-7.4,7.7c-1.9,3.4-2.8,7.5-2.8,12.2c0,4.3,0.9,8.1,2.8,11.3c1.8,3.3,4.4,5.8,7.7,7.7c3.3,1.9,7.1,2.8,11.5,2.8
			c3,0,5.8-0.7,8.4-1.9c2.6-1.3,4.7-2.8,6.3-4.5c0.9-0.7,1.3-1.5,1.3-2.5c0-0.8-0.3-1.4-0.8-2s-1.2-0.8-2-0.8
			c-0.7,0-1.3,0.2-2.1,0.7c-0.7,0.8-1.6,1.5-2.6,2.3s-2.3,1.4-3.7,1.8s-3.1,0.7-5,0.7c-3.1,0-5.8-0.7-8.1-2.1
			c-2.3-1.4-4.1-3.3-5.4-5.7c-1.1-2.1-1.8-4.5-1.9-7.2h29.9c0.9,0,1.7-0.3,2.3-0.9c0.7-0.6,1-1.3,1-2.2c-0.1-3.1-0.6-5.9-1.7-8.4
			S552.2,521.2,550.4,519.4L550.4,519.4z M527.5,523.8c1.3-1.3,2.7-2.2,4.4-2.8s3.2-0.9,4.9-0.9c2,0,4,0.4,5.8,1.3s3.4,2.1,4.7,3.8
			s2,3.5,2.3,5.8v0.7h-26c0.2-1,0.5-2,0.8-2.9C525.2,526.7,526.2,525.1,527.5,523.8L527.5,523.8z"/>
		<path class="st1" d="M598.9,514.6c-1,0-1.8,0.3-2.4,1c-0.6,0.6-0.9,1.4-0.9,2.3v3.3c-0.7-1.1-1.6-2-2.7-3
			c-1.5-1.3-3.3-2.4-5.3-3.1c-2-0.8-4.2-1.2-6.6-1.2c-3.6,0-6.9,1-9.9,2.8s-5.3,4.5-7,7.8s-2.6,7.2-2.6,11.5s0.9,8.1,2.6,11.5
			s4.1,6,7,8c3,2,6.3,2.9,10,2.9c2.2,0,4.3-0.4,6.3-1.2c2-0.8,3.6-1.8,5.1-3c1.2-1.1,2.3-2.2,3-3.5v3.5c0,0.9,0.3,1.7,0.9,2.4
			c0.6,0.7,1.4,1,2.4,1c0.9,0,1.7-0.3,2.3-1c0.6-0.7,1-1.5,1-2.4v-36.3c0-0.9-0.3-1.7-1-2.3C600.7,514.9,599.9,514.6,598.9,514.6
			L598.9,514.6z M589.3,550.2c-2.1,1.4-4.5,2.1-7.3,2.1s-5.2-0.7-7.3-2.1c-2.1-1.4-3.8-3.4-4.9-5.8c-1.2-2.4-1.8-5.2-1.8-8.3
			s0.6-5.9,1.8-8.3s2.9-4.3,5-5.7s4.5-2.1,7.2-2.1s5.2,0.7,7.3,2.1c2.1,1.4,3.8,3.3,4.9,5.8s1.8,5.2,1.8,8.2s-0.6,5.8-1.8,8.3
			C593,546.8,591.4,548.7,589.3,550.2L589.3,550.2z"/>
		<path class="st1" d="M615.5,496.6c-0.9,0-1.7,0.3-2.3,1s-1,1.4-1,2.4v54.3c0,0.9,0.3,1.7,0.9,2.4c0.6,0.7,1.4,1,2.3,1
			s1.7-0.3,2.4-1s1-1.5,1-2.4v-54.3c0-0.9-0.3-1.7-0.9-2.4C617.3,497,616.5,496.6,615.5,496.6z"/>
		<path class="st1" d="M647.4,515.2h-7.5v-7.9c0-0.9-0.3-1.7-0.9-2.4s-1.4-1-2.3-1s-1.7,0.3-2.4,1c-0.7,0.6-1,1.4-1,2.4v7.9H628
			c-0.8,0-1.5,0.3-2.1,0.9c-0.6,0.6-0.9,1.3-0.9,2.1c0,0.9,0.3,1.6,0.9,2.2c0.6,0.6,1.3,0.9,2.1,0.9h5.3v26.1c0,2.5,0.4,4.5,1.1,5.9
			s1.7,2.4,2.8,3c1.1,0.6,2.2,1,3.3,1.1c1.1,0.1,2.1,0.2,2.8,0.2c1.4,0,2.7-0.3,3.9-1s1.7-1.5,1.7-2.5c0-0.8-0.2-1.5-0.7-2
			c-0.5-0.5-1-0.8-1.5-0.8s-1,0.1-1.4,0.3s-0.9,0.3-1.4,0.3c-0.6,0-1.2-0.1-1.8-0.4s-1.1-0.7-1.5-1.4s-0.6-1.7-0.6-3v-25.8h7.5
			c0.9,0,1.6-0.3,2.2-0.9s0.9-1.3,0.9-2.2c0-0.8-0.3-1.5-0.9-2.1C649,515.6,648.3,515.3,647.4,515.2L647.4,515.2z"/>
		<path class="st1" d="M690.9,523c-0.9-2.6-2.4-4.7-4.5-6.3c-2.1-1.6-5-2.3-8.6-2.3c-1.9,0-3.8,0.3-5.5,1s-3.3,1.6-4.8,2.8
			s-2.6,2.5-3.5,3.9c-0.1,0.1-0.1,0.2-0.2,0.3v-22.4c0-0.9-0.3-1.7-0.9-2.4c-0.6-0.6-1.4-1-2.4-1c-0.9,0-1.7,0.3-2.3,1s-1,1.4-1,2.4
			v54.3c0,0.9,0.3,1.7,1,2.4c0.6,0.7,1.4,1,2.3,1s1.7-0.3,2.3-1c0.6-0.7,1-1.5,1-2.4v-22.6c0-2.1,0.5-4,1.7-5.6c1.1-1.7,2.6-3,4.5-4
			c1.9-1,3.9-1.5,6.2-1.5c2.4,0,4.3,0.5,5.7,1.5c1.4,1,2.4,2.4,3,4c0.6,1.7,0.9,3.5,0.9,5.6v22.6c0,0.9,0.3,1.7,1,2.4
			c0.6,0.7,1.4,1,2.3,1s1.7-0.3,2.3-1c0.6-0.7,1-1.5,1-2.4v-22.6C692.3,528.5,691.8,525.6,690.9,523L690.9,523z"/>
	</g>
</g>
</svg>
