<?xml version="1.0" encoding="utf-8"?>
<!-- Generator: Adobe Illustrator 27.0.0, SVG Export Plug-In . SVG Version: 6.00 Build 0)  -->
<svg version="1.1" id="Layer_1" xmlns="http://www.w3.org/2000/svg" xmlns:xlink="http://www.w3.org/1999/xlink" x="0px" y="0px"
	 viewBox="0 0 768 185.7" style="enable-background:new 0 0 768 185.7;" xml:space="preserve">
<style type="text/css">
	.st0{fill:#529040;}
	.st1{fill:#06659E;}
</style>
<g id="Layer_3">
	<path class="st0" d="M131,97.2c0-0.1-0.2-0.2-0.7-0.6c-2.7,7.6-5.7,15.1-13.1,19.3v0c-4.3,3-8.7,5.5-14.4,3.6
		c1.8-4.7,8.9-5.8,7.4-12.1c-12.2,3.4-21.2,13.4-22.2,25.2c0-0.4,0-0.7-0.1-1.1c-0.4-6.3-3.7-11.9-8.8-15.8c-4.1-3.1-8.5-5.8-13.2-9
		c-1.8,7,5.2,8.1,7,12.5c-2.1,1.4-4.3,1.4-6.5,0.6c-8.9-2.9-15.3-8.6-18.8-17.4l-2.2-5.7c-0.3,0.1-0.6,0.1-1,0.2
		c0.2,2.1,0.2,4.4,0.7,6.5c2.8,11.1,9.8,18.8,19.6,24.5c2.8,1.6,5.5,3.3,8.1,5c2.6,1.7,3.8,4.3,4.1,7.4c1.4,15.1-0.4,29.8-4.4,44.1
		c4.7,1.8,22.9,1.8,27.7,0c-1.3-5.4-4.4-14-4.9-18.7c-0.8-6-1.3-12.1-0.9-18.1c0.4-6.8,4.4-12,10-15.8c4.8-3.2,10-6,14.5-9.7
		c7.2-5.9,11.6-13.7,12.2-23.2C131.1,98.3,131,97.8,131,97.2L131,97.2z M68.1,16.6c-9.4,6.4-10.3,23.9-1.4,31.1
		c0.8-5.9,1.5-11.5,2.2-17.1l0.6,0l-1,17.8C76.7,43.8,79.3,25.3,68.1,16.6L68.1,16.6z M85,31.1c0.6-3.2,1.2-5.9,1.5-8.7
		c0.3-2.8,0.3-5.6,0.7-8.4c1.6,5.9-0.1,11.9-0.2,18c9.1-6.3,10.3-24-0.3-32C77.4,5.9,76.2,22.7,85,31.1L85,31.1z M105,11.4
		c-9.3,6.7-10.3,23.3-1.4,31.2c0.4-3.2,0.9-6.1,1.3-9c0.3-2.9,0.5-5.8,0.9-8.7c1.5,6.1,0,12.3-0.5,18.7
		C115.1,36.5,114.8,18.5,105,11.4L105,11.4z M61.2,56.9c-1.6-2.9-3.1-5.6-4.6-8.2c0.1-0.1,0.2-0.1,0.3-0.2c1.6,2.4,3.1,4.7,4.8,7.2
		c2.6-5.1-1.4-13.4-6.8-14.1c-0.4-0.1-1.1,0.3-1.3,0.7c-2.4,5.2,0.6,12.3,6,14.3C60.1,56.7,60.5,56.7,61.2,56.9z M151.8,111.5
		c4.7-2.3,8.9-4.4,13.1-6.5c0.1,0.2,0.2,0.4,0.4,0.5c-4.5,2.7-8.9,5.3-13.3,7.9c9.7,4.6,21.9-3.9,23.7-16.4
		C166.9,92.1,153.2,100,151.8,111.5L151.8,111.5z M42.2,76.8c2-7.2-1.9-13.9-7.8-14.5c-3.2,6,0.8,14.8,7.2,15.4
		c-0.9-1.4-1.8-2.7-2.5-4.1c-0.8-1.4-1.4-2.8-1.9-4.3C38.7,71.7,40.4,74.1,42.2,76.8L42.2,76.8z M81.1,65.7
		c2.2-8.2-2.1-15.8-8.9-16.5C68.5,56,73,66,80.4,66.7c-1-1.6-2-3.1-2.9-4.6c-0.9-1.5-1.6-3.2-2.2-4.9L81.1,65.7L81.1,65.7z
		 M136.5,34.2c-7.3,7.5-4.4,21,6.3,27.5c-0.8-5.5-1.5-10.4-2.2-15.3c0.2-0.1,0.4-0.1,0.6-0.1c1.2,5.2,2.3,10.4,3.6,15.9
		c2.9-3.4,3.9-7.3,3.4-11.5C147.3,43.1,143.3,37.7,136.5,34.2L136.5,34.2z M158.6,53c-10.1,3.8-14,16.2-7.9,27.1
		c2.1-5.4,3.9-10.2,5.8-15.1l0.6,0.2c-1.6,5.3-3.2,10.7-4.8,15.9C159.7,80.1,167.6,65.3,158.6,53L158.6,53z M134.1,105.2
		c3.6-2.6,7.3-5.1,10.9-7.7c0.1,0.2,0.3,0.4,0.4,0.5c-3.8,3.1-7.5,6.2-11.5,9.6c6.8,1.1,11.9-1.2,16.1-6.1c2.9-3.4,4.4-7.4,4.9-11.9
		c0.2-2.2-0.6-2.9-2.6-3.1c-6.2-0.5-13.5,3.7-16.5,10.1c-1.2,2.5-1.8,5.2-2.6,7.8L134.1,105.2L134.1,105.2z M41.3,108.4
		c-4.3-2.9-8.2-5.5-12.2-8c0.1-0.2,0.3-0.4,0.4-0.6L41,106c0.2-0.2,0.4-0.3,0.7-0.5c-0.6-1.6-1-3.3-1.8-4.9
		c-3.2-7.4-11.2-12.1-18.6-11.2c-2.4,0.3-3.2,1.2-2.7,3.7c2,10.1,11,17.1,20.6,15.8C39.8,108.8,40.4,108.6,41.3,108.4L41.3,108.4z
		 M135,75.1c-2,3.5-3.9,7-5.9,10.5c4.8-0.7,9-4.4,9.9-9.5c0.5-2.8,0.1-5.8-0.1-8.7c-0.1-1.4-0.9-1.7-2.3-1.3
		c-4.9,1.3-8.8,6.4-9.2,12.1c-0.1,1.9,0.2,3.7,0.3,5.6c0.2,0.1,0.5,0.2,0.7,0.3l6.1-9.2C134.7,74.9,134.9,75,135,75.1L135,75.1z
		 M0,98.2c1.6,13,14.5,20.9,23.8,16.8c-4.7-2.8-9.3-5.6-13.9-8.4l0.3-0.5c4.4,2.2,8.7,4.4,13.1,6.6l0.6-0.6c-1.1-5-3.9-9-8.2-12
		C10.8,96.9,5.7,96,0,98.2L0,98.2z M31.3,59c1.3-5.1,2.5-10,3.7-14.9c0.1-0.3,0.4-0.5,0.5-0.7c-0.7,4.9-1.4,9.7-2.1,14.9
		c8.3-3.8,13.7-16.6,7.7-25.5c-0.4-0.6-2-1.3-2.5-1.1c-9.8,5.2-13.9,17.7-8,26.5C30.8,58.5,31.1,58.7,31.3,59z M20.9,69.8
		c1.6,4.3,3.2,8.6,5,13.2c6.3-9,2.9-23.6-7.1-26.8c-6.4,6.1-6.6,23.8,5.7,28.4c-1.4-4.9-2.8-9.7-4.2-14.5
		C20.4,70,20.6,69.9,20.9,69.8L20.9,69.8z M109.5,56c1.9-2.8,3.6-5.4,5.2-7.9c0.1,0,0.1,0,0.2,0c-0.4,1-0.8,1.9-1.2,2.9
		c-0.5,1-1.2,2-1.8,3c-0.6,1-1.2,1.9-1.8,2.9c3.2,0.1,7.2-2.9,8.2-7.4c0.5-2.3,0.2-4.9,0.1-7.3c0-1.2-0.9-1.5-2-1.2
		c-3.6,1.1-5.8,3.6-6.9,7C108.6,50.5,108.4,53,109.5,56L109.5,56z M49.2,119.9c-3.3,0.8-6.4,1.6-9.5,2.4c-0.1-0.2-0.1-0.4-0.2-0.6
		c2.8-1,5.5-2,8.5-3c-6.2-4.9-15.4-2.7-19,4.2C34.7,128.8,46,127.3,49.2,119.9L49.2,119.9z M136,141.4c2.7-7-2.3-14.6-11.1-16.4
		c1.5,2.9,2.9,5.5,4.3,8.1c-0.1,0.1-0.3,0.2-0.5,0.3c-1.7-2.6-3.4-5.2-5.2-7.8C120.4,131.4,127.1,141.3,136,141.4L136,141.4z"/>
	<path class="st0" d="M58.3,128.4c-2,3-3.9,5.8-5.8,8.6c-0.1-0.1-0.3-0.2-0.4-0.3c1.5-2.7,3-5.5,4.6-8.3c-7.8,0.3-13.8,9.1-11,15.9
		C53.6,144.8,61,135.6,58.3,128.4z M140.5,120.5c-3.3-0.8-6.6-1.6-9.9-2.4c1.7,7.1,14.4,8.6,19.9,3.2c-2.5-6.9-12.5-9.5-19-4.5
		c3.2,1.1,6.2,2.1,9.1,3.1L140.5,120.5L140.5,120.5z M124.6,31.2c-0.7,2.5-1.4,5-2.1,7.5c6.1-1.8,7-11.1,3.7-15.4
		c-0.3-0.4-1.9-0.4-2.5,0c-3.1,2.1-4.3,5.3-4.1,9c0.1,1.8,0.7,3.5,1,5.2c0.3,0.1,0.5,0.1,0.8,0.1c0.9-2.2,1.8-4.4,2.8-6.6
		C124.4,31.1,124.5,31.2,124.6,31.2z M54.5,34.8c3.4-6.3,1.5-13.1-4.1-15.4c-4.6,5-3.2,13.3,3,16.3c-0.7-2.2-1.2-4.3-1.8-6.3
		l0.5-0.2C52.9,31.1,53.7,32.9,54.5,34.8z M165.1,89.1c5.6-0.3,10-8.6,6.8-14.9c-6.2,1.1-9.6,7.1-7.7,13.9l3.2-4.2
		c0.1,0.1,0.3,0.1,0.4,0.2L165.1,89.1L165.1,89.1z M88,43.8c0.2,2.6,0.5,5.2,0.8,8.2c2.2-1.8,2.8-4.1,2.8-6.5
		c-0.1-4.2-1.9-7.6-5.5-9.9c-4.6,4.2-4.1,11.3,1.2,15.9v-7.6C87.4,43.8,87.7,43.8,88,43.8L88,43.8z M11.9,89.1
		c-1.2-2-2.2-3.9-3.3-5.8c0.1-0.1,0.3-0.2,0.4-0.3c1.2,1.6,2.4,3.2,3.7,4.9c2.2-6.2-1-12-7.3-13.8C1.8,78.2,5.3,88.9,11.9,89.1
		L11.9,89.1z"/>
	<path class="st1" d="M121.8,76.9c-2.9,0-5.7,0.3-8.4,0.8l3-15.1c0.2-1-0.4-2-1.5-2.2c-1-0.2-2,0.5-2.2,1.5l-3.4,16.8
		c-3.2,0.9-6.2,2.1-9,3.4l3.9-19.5c0.2-1-0.4-2-1.5-2.2c-1-0.2-2,0.5-2.2,1.5l-4.5,22.5c-6.6,3.8-11.7,8.2-14.5,10.9l-2.4-13.5
		c-0.1-0.8-0.7-1.4-1.5-1.5s-1.5,0.2-1.9,0.8l-8.7,13.4c-2.1-8.3-6.9-25.6-12-30.8c-0.7-0.7-1.9-0.7-2.7,0c-0.7,0.7-0.7,1.9,0,2.6
		c4.8,4.8,10.3,25.6,12,33.2c0.2,0.9,0.9,1.5,1.8,1.5c0.6,0,1.2-0.3,1.6-0.9l8.5-13.1l2.2,12.4c0.1,0.7,0.7,1.3,1.3,1.5
		c0.7,0.2,1.4,0,1.9-0.6c0.1-0.1,5.2-5.8,13.3-11l-1.9,9.4c-0.2,1,0.4,2,1.5,2.2c0.1,0,0.2,0,0.4,0c0.9,0,1.7-0.6,1.8-1.5l2.6-12.7
		c2.8-1.5,5.8-2.9,9.1-4l-3.2,16c-0.2,1,0.4,2,1.5,2.2c0.1,0,0.2,0,0.4,0c0.9,0,1.7-0.6,1.8-1.5l3.6-17.9c2.9-0.7,6-1.1,9.2-1.1
		c1,0,1.9-0.8,1.9-1.9S122.8,77,121.8,76.9L121.8,76.9z"/>
</g>
<g id="Layer_6_copy">
	<path class="st1" d="M249.6,69.6c-0.6,0-1.2,0.2-1.6,0.5c-0.5,0.3-0.9,0.8-1,1.3L234.6,108l-10.5-26.3c-0.2-0.5-0.5-1-1-1.3
		s-1-0.5-1.6-0.5c-0.6,0-1.1,0.2-1.6,0.5s-0.8,0.8-1,1.3l-10.7,26.4l-12.4-36.7c-0.2-0.5-0.5-1-1-1.3s-1-0.5-1.6-0.5
		c-0.7,0-1.4,0.3-2,0.8c-0.7,0.5-1,1.2-1,2.2c0,0.3,0.1,0.6,0.1,1l14.6,42.6c0.2,0.5,0.5,1,1,1.3s1,0.5,1.5,0.5
		c0.6,0,1.1-0.1,1.6-0.5c0.5-0.3,0.9-0.7,1.2-1.3l11.2-27l11.2,27c0.3,0.6,0.7,1,1.2,1.3c0.5,0.3,1,0.5,1.6,0.5c0.5,0,1-0.2,1.5-0.5
		s0.8-0.7,1-1.3l14.6-42.6c0.1-0.4,0.1-0.7,0.1-1c0-0.9-0.3-1.6-0.9-2.1S250.4,69.6,249.6,69.6L249.6,69.6z M282.2,83.8
		c-1.8-1.3-4.2-2-7.2-2c-1.6,0-3.1,0.3-4.6,0.9c-1.5,0.6-2.8,1.3-4,2.3s-2.2,2-3,3.3c0,0.1-0.1,0.2-0.1,0.2V69.8
		c0-0.8-0.2-1.4-0.8-2s-1.2-0.8-2-0.8c-0.8,0-1.4,0.3-2,0.8c-0.5,0.5-0.8,1.2-0.8,2v45.3c0,0.8,0.3,1.4,0.8,2s1.2,0.8,2,0.8
		s1.4-0.3,2-0.8c0.5-0.5,0.8-1.2,0.8-2V96.3c0-1.7,0.5-3.3,1.4-4.7s2.1-2.5,3.7-3.4s3.3-1.3,5.2-1.3c2,0,3.6,0.4,4.8,1.3
		c1.2,0.9,2,2,2.5,3.4s0.8,3,0.8,4.7v18.8c0,0.8,0.3,1.4,0.8,2s1.2,0.8,2,0.8s1.4-0.3,2-0.8c0.5-0.5,0.8-1.2,0.8-2V96.3
		c0-2.7-0.4-5.1-1.1-7.3C285.2,86.9,283.9,85.1,282.2,83.8L282.2,83.8z M319.4,83.9c-2.7-1.6-5.7-2.4-9-2.4s-6.4,0.8-9.1,2.4
		s-4.9,3.8-6.4,6.6c-1.6,2.8-2.4,6-2.4,9.6s0.8,6.8,2.4,9.6s3.7,5,6.4,6.6c2.7,1.6,5.7,2.4,9.1,2.4s6.4-0.8,9-2.4
		c2.7-1.6,4.8-3.8,6.4-6.6c1.6-2.8,2.4-6,2.4-9.6s-0.8-6.8-2.4-9.6S322.1,85.5,319.4,83.9z M321.1,107c-1.1,2-2.5,3.6-4.4,4.8
		s-4,1.8-6.3,1.8s-4.4-0.6-6.3-1.8c-1.9-1.2-3.3-2.8-4.4-4.8s-1.6-4.3-1.6-7s0.5-5,1.6-7c1.1-2,2.6-3.6,4.4-4.8
		c1.9-1.1,4-1.7,6.3-1.7s4.4,0.6,6.3,1.7c1.9,1.1,3.3,2.7,4.4,4.8s1.6,4.4,1.6,7S322.2,105,321.1,107z M337,67.1
		c-0.8,0-1.4,0.3-2,0.8c-0.5,0.5-0.8,1.2-0.8,2v45.3c0,0.8,0.2,1.4,0.8,2c0.5,0.5,1.1,0.8,1.9,0.8s1.4-0.3,2-0.8
		c0.5-0.5,0.8-1.2,0.8-2V69.8c0-0.8-0.2-1.4-0.8-2S337.8,67.1,337,67.1L337,67.1z M375.1,86.1c-1.5-1.5-3.3-2.6-5.2-3.4
		c-1.9-0.8-4-1.2-6.1-1.2c-2.8,0-5.5,0.8-8.1,2.2c-2.5,1.5-4.6,3.6-6.2,6.5s-2.4,6.2-2.4,10.2c0,3.6,0.8,6.7,2.3,9.5
		c1.5,2.7,3.7,4.9,6.4,6.4s6,2.3,9.6,2.3c2.5,0,4.8-0.5,7-1.6s3.9-2.3,5.2-3.8c0.7-0.6,1.1-1.3,1.1-2.1c0-0.6-0.2-1.2-0.6-1.6
		c-0.4-0.5-1-0.7-1.7-0.7c-0.5,0-1.1,0.2-1.7,0.6c-0.6,0.6-1.3,1.3-2.2,1.9c-0.9,0.6-1.9,1.1-3.1,1.5c-1.2,0.4-2.6,0.6-4.2,0.6
		c-2.6,0-4.8-0.6-6.7-1.8c-1.9-1.1-3.5-2.8-4.5-4.8c-0.9-1.8-1.5-3.8-1.6-6h25c0.7,0,1.4-0.2,1.9-0.8c0.5-0.5,0.8-1.1,0.8-1.9
		c0-2.6-0.5-4.9-1.4-7C377.8,89.4,376.6,87.6,375.1,86.1L375.1,86.1z M356,89.7c1.1-1.1,2.3-1.9,3.6-2.3s2.7-0.7,4.1-0.7
		c1.7,0,3.3,0.4,4.9,1.1s2.8,1.8,3.9,3.1c1.1,1.4,1.7,3,1.9,4.9v0.5h-21.7c0.2-0.9,0.4-1.7,0.7-2.4C354,92.2,354.9,90.8,356,89.7
		L356,89.7z M407.9,100.9c-1.1-0.8-2.3-1.4-3.7-1.9c-1.4-0.5-2.8-0.9-4.2-1.3c-1.6-0.5-3.1-0.9-4.4-1.4s-2.4-1.1-3.2-1.9
		c-0.8-0.8-1.2-1.8-1.2-3c0-1.3,0.4-2.4,1.1-3.1c0.7-0.8,1.6-1.3,2.6-1.6c1-0.3,2.1-0.5,3.2-0.5c1.7,0,3.3,0.3,4.8,0.9
		s2.6,1.5,3.6,2.6c0.4,0.4,0.9,0.6,1.5,0.7s1.2-0.1,1.7-0.5c0.6-0.5,0.9-1.2,0.9-1.9c0-0.7-0.3-1.3-0.7-1.7c-1-1.2-2.2-2.2-3.5-2.9
		c-1.3-0.7-2.7-1.2-4.1-1.5c-1.4-0.3-2.7-0.5-4-0.5c-2.2,0-4.3,0.4-6.2,1.2s-3.4,2-4.5,3.5c-1.1,1.5-1.7,3.3-1.7,5.4
		c0,1.7,0.4,3.2,1.1,4.4c0.7,1.2,1.7,2.2,2.8,3c1.2,0.8,2.5,1.5,4,2c1.5,0.5,3,1,4.5,1.4c1.5,0.4,2.8,0.8,4.1,1.3s2.2,1.1,3,1.9
		c0.8,0.8,1.2,1.8,1.2,3.1s-0.4,2.4-1.1,3.2c-0.8,0.8-1.7,1.4-2.8,1.7c-1.1,0.3-2.2,0.5-3.3,0.5c-2.4,0-4.4-0.5-6-1.3
		c-1.6-0.9-3.1-2.1-4.4-3.6c-0.5-0.5-1.1-0.9-1.7-0.9c-0.6,0-1.2,0.1-1.6,0.4c-0.7,0.5-1.1,1.1-1.2,1.8c0,0.7,0.1,1.3,0.5,1.9
		c1.8,2.3,3.9,3.9,6.4,4.9s4.9,1.4,7.5,1.4c2.2,0,4.3-0.4,6.3-1.2c2-0.8,3.5-2,4.7-3.5s1.8-3.4,1.8-5.5c0-1.8-0.3-3.4-1-4.6
		C409.9,102.7,409,101.7,407.9,100.9L407.9,100.9z M443,83.9c-2.7-1.6-5.7-2.4-9-2.4s-6.4,0.8-9.1,2.4s-4.9,3.8-6.4,6.6
		c-1.6,2.8-2.4,6-2.4,9.6s0.8,6.8,2.4,9.6s3.7,5,6.4,6.6c2.7,1.6,5.7,2.4,9.1,2.4s6.4-0.8,9-2.4c2.7-1.6,4.8-3.8,6.4-6.6
		c1.6-2.8,2.4-6,2.4-9.6s-0.8-6.8-2.4-9.6S445.6,85.5,443,83.9z M444.6,107c-1.1,2-2.5,3.6-4.4,4.8s-4,1.8-6.3,1.8s-4.4-0.6-6.3-1.8
		c-1.9-1.2-3.3-2.8-4.4-4.8s-1.6-4.3-1.6-7s0.5-5,1.6-7c1.1-2,2.6-3.6,4.4-4.8c1.9-1.1,4-1.7,6.3-1.7s4.4,0.6,6.3,1.7
		c1.9,1.1,3.3,2.7,4.4,4.8s1.6,4.4,1.6,7S445.7,105,444.6,107z M505.5,83.8c-1.7-1.3-4.1-2-7.1-2c-1.9,0-3.7,0.4-5.4,1.2
		s-3.3,1.8-4.6,3c-1.2,1.1-2.1,2.3-2.7,3.5c-0.7-2.2-1.9-3.9-3.5-5.2c-2-1.6-4.5-2.4-7.6-2.4c-1.6,0-3.2,0.3-4.7,0.9
		c-1.5,0.6-2.8,1.4-4,2.4c-1.1,1-2.1,2-2.8,3.1v-3.1c0-0.8-0.2-1.4-0.8-2s-1.2-0.8-2-0.8c-0.8,0-1.4,0.3-2,0.8s-0.8,1.2-0.8,2v30
		c0,0.8,0.3,1.4,0.8,2s1.2,0.8,2,0.8s1.4-0.3,2-0.8c0.5-0.5,0.8-1.2,0.8-2V96.3c0-1.7,0.5-3.3,1.4-4.7s2.1-2.5,3.6-3.4
		s3.2-1.3,5-1.3c2,0,3.6,0.4,4.8,1.3c1.1,0.9,2,2,2.4,3.4s0.7,3,0.7,4.7v18.8c0,0.8,0.3,1.4,0.8,2s1.2,0.8,2,0.8
		c0.8,0,1.5-0.3,2-0.8c0.5-0.5,0.8-1.2,0.8-2V96.5c0-1.8,0.5-3.4,1.4-4.9c0.9-1.4,2.2-2.6,3.7-3.4c1.6-0.9,3.3-1.3,5.2-1.3
		c2,0,3.6,0.4,4.8,1.3c1.2,0.9,2,2,2.5,3.4c0.5,1.4,0.8,3.1,0.8,4.9v18.6c0,0.8,0.2,1.4,0.8,2c0.5,0.5,1.2,0.8,2,0.8
		c0.8,0,1.4-0.3,2-0.8c0.5-0.5,0.8-1.2,0.8-2V96.4c0-2.7-0.4-5.1-1.1-7.3C508.5,86.9,507.2,85.1,505.5,83.8L505.5,83.8z M545.2,86.1
		c-1.5-1.5-3.3-2.6-5.2-3.4c-1.9-0.8-4-1.2-6.1-1.2c-2.8,0-5.5,0.8-8.1,2.2c-2.5,1.5-4.6,3.6-6.2,6.5s-2.4,6.2-2.4,10.2
		c0,3.6,0.8,6.7,2.3,9.5c1.5,2.7,3.7,4.9,6.4,6.4s6,2.3,9.6,2.3c2.5,0,4.8-0.5,7-1.6s3.9-2.3,5.2-3.8c0.7-0.6,1.1-1.3,1.1-2.1
		c0-0.6-0.2-1.2-0.7-1.6c-0.4-0.5-1-0.7-1.7-0.7c-0.5,0-1.1,0.2-1.7,0.6c-0.6,0.6-1.3,1.3-2.2,1.9c-0.9,0.6-1.9,1.1-3.1,1.5
		c-1.2,0.4-2.6,0.6-4.2,0.6c-2.6,0-4.8-0.6-6.7-1.8s-3.4-2.8-4.5-4.8c-0.9-1.8-1.5-3.8-1.6-6h25c0.7,0,1.4-0.2,1.9-0.8
		c0.5-0.5,0.8-1.1,0.8-1.9c0-2.6-0.5-4.9-1.4-7C548,89.4,546.8,87.6,545.2,86.1L545.2,86.1z M526.2,89.7c1.1-1.1,2.3-1.9,3.6-2.3
		c1.3-0.5,2.7-0.7,4.1-0.7c1.7,0,3.3,0.4,4.8,1.1s2.8,1.8,3.9,3.1s1.7,3,1.9,4.9v0.5h-21.7c0.2-0.9,0.4-1.7,0.7-2.4
		C524.2,92.2,525.1,90.8,526.2,89.7L526.2,89.7z M613.1,69.8c-0.8,0-1.5,0.3-2,0.8c-0.6,0.5-0.9,1.2-0.9,2v18.2h-26V72.6
		c0-0.8-0.3-1.5-0.8-2c-0.5-0.5-1.2-0.8-2-0.8c-0.8,0-1.5,0.3-2.1,0.8c-0.5,0.5-0.8,1.2-0.8,2v42.5c0,0.8,0.2,1.4,0.8,2
		c0.5,0.5,1.2,0.8,2.1,0.8c0.8,0,1.5-0.3,2-0.8c0.6-0.5,0.9-1.2,0.9-2v-19h26v19c0,0.8,0.3,1.4,0.8,2c0.5,0.5,1.2,0.8,2,0.8
		c0.8,0,1.5-0.3,2.1-0.8s0.8-1.2,0.8-2V72.6c0-0.8-0.3-1.5-0.8-2C614.6,70.1,613.9,69.8,613.1,69.8z M649.4,86.1
		c-1.5-1.5-3.3-2.6-5.2-3.4c-1.9-0.8-4-1.2-6.1-1.2c-2.8,0-5.5,0.8-8.1,2.2c-2.5,1.5-4.6,3.6-6.2,6.5s-2.4,6.2-2.4,10.2
		c0,3.6,0.8,6.7,2.3,9.5c1.5,2.7,3.7,4.9,6.4,6.4s6,2.3,9.6,2.3c2.5,0,4.8-0.5,7-1.6s3.9-2.3,5.2-3.8c0.7-0.6,1.1-1.3,1.1-2.1
		c0-0.6-0.2-1.2-0.7-1.6c-0.4-0.5-1-0.7-1.7-0.7c-0.5,0-1.1,0.2-1.7,0.6c-0.6,0.6-1.3,1.3-2.2,1.9c-0.9,0.6-1.9,1.1-3.1,1.5
		c-1.2,0.4-2.6,0.6-4.2,0.6c-2.6,0-4.8-0.6-6.7-1.8s-3.4-2.8-4.5-4.8c-0.9-1.8-1.5-3.8-1.6-6h25c0.7,0,1.4-0.2,1.9-0.8
		c0.5-0.5,0.8-1.1,0.8-1.9c0-2.6-0.5-4.9-1.4-7C652.2,89.4,650.9,87.6,649.4,86.1L649.4,86.1z M630.4,89.7c1.1-1.1,2.3-1.9,3.6-2.3
		c1.3-0.5,2.7-0.7,4.1-0.7c1.7,0,3.3,0.4,4.8,1.1s2.8,1.8,3.9,3.1s1.7,3,1.9,4.9v0.5h-21.7c0.2-0.9,0.4-1.7,0.7-2.4
		C628.4,92.2,629.3,90.8,630.4,89.7L630.4,89.7z M690,82.1c-0.8,0-1.5,0.3-2,0.8s-0.8,1.2-0.8,2v2.8c-0.6-0.9-1.3-1.7-2.2-2.5
		c-1.3-1.1-2.7-2-4.4-2.6c-1.7-0.6-3.5-1-5.5-1c-3,0-5.8,0.8-8.2,2.4c-2.5,1.6-4.4,3.8-5.9,6.5s-2.2,6-2.2,9.6s0.7,6.8,2.2,9.6
		s3.4,5,5.9,6.6s5.3,2.4,8.4,2.4c1.9,0,3.6-0.3,5.3-1c1.6-0.7,3-1.5,4.2-2.5c1-0.9,1.9-1.9,2.5-2.9v2.9c0,0.8,0.2,1.4,0.8,2
		c0.5,0.5,1.2,0.8,2,0.8c0.8,0,1.4-0.3,2-0.8c0.5-0.5,0.8-1.2,0.8-2V84.8c0-0.8-0.3-1.4-0.8-2S690.8,82.1,690,82.1L690,82.1z
		 M681.9,111.8c-1.8,1.2-3.8,1.8-6.1,1.8s-4.3-0.6-6.1-1.8s-3.1-2.8-4.1-4.9s-1.5-4.3-1.5-6.9s0.5-4.9,1.5-7c1-2,2.4-3.6,4.2-4.8
		c1.8-1.1,3.8-1.7,6-1.7s4.3,0.6,6.1,1.8c1.8,1.2,3.1,2.8,4.1,4.8s1.5,4.3,1.5,6.8s-0.5,4.9-1.5,6.9S683.7,110.6,681.9,111.8
		L681.9,111.8z M703.8,67.1c-0.8,0-1.4,0.3-2,0.8c-0.5,0.5-0.8,1.2-0.8,2v45.3c0,0.8,0.2,1.4,0.8,2c0.5,0.5,1.2,0.8,1.9,0.8
		s1.4-0.3,2-0.8s0.8-1.2,0.8-2V69.8c0-0.8-0.2-1.4-0.8-2C705.3,67.3,704.7,67.1,703.8,67.1z M730.5,82.6h-6.3V76
		c0-0.8-0.2-1.4-0.8-2s-1.2-0.8-1.9-0.8s-1.4,0.3-2,0.8s-0.8,1.2-0.8,2v6.6h-4.4c-0.7,0-1.3,0.2-1.8,0.7c-0.5,0.5-0.8,1.1-0.8,1.8
		c0,0.7,0.2,1.4,0.8,1.9c0.5,0.5,1.1,0.8,1.8,0.8h4.4v21.8c0,2.1,0.3,3.8,0.9,4.9s1.4,2,2.3,2.5c0.9,0.5,1.8,0.8,2.8,0.9
		c0.9,0.1,1.7,0.1,2.4,0.1c1.2,0,2.3-0.3,3.2-0.9c1-0.6,1.4-1.3,1.4-2.1c0-0.7-0.2-1.2-0.6-1.7c-0.4-0.4-0.8-0.6-1.3-0.6
		s-0.9,0.1-1.2,0.2s-0.8,0.2-1.2,0.2c-0.5,0-1-0.1-1.5-0.3s-1-0.6-1.3-1.1c-0.3-0.5-0.5-1.4-0.5-2.5V87.7h6.3c0.7,0,1.3-0.2,1.8-0.7
		s0.7-1.1,0.7-1.8c0-0.7-0.2-1.3-0.7-1.8C731.8,82.9,731.2,82.6,730.5,82.6L730.5,82.6z M766.8,89c-0.8-2.2-2-3.9-3.8-5.2
		c-1.8-1.3-4.2-2-7.2-2c-1.6,0-3.1,0.3-4.6,0.9c-1.5,0.6-2.8,1.3-4,2.3s-2.2,2-3,3.3c0,0.1-0.1,0.2-0.1,0.2V69.8
		c0-0.8-0.2-1.4-0.8-2c-0.5-0.5-1.2-0.8-2-0.8c-0.8,0-1.4,0.3-2,0.8s-0.8,1.2-0.8,2v45.3c0,0.8,0.3,1.4,0.8,2s1.2,0.8,2,0.8
		s1.4-0.3,2-0.8c0.5-0.5,0.8-1.2,0.8-2V96.3c0-1.7,0.5-3.3,1.4-4.7s2.2-2.5,3.7-3.4s3.3-1.3,5.2-1.3c2,0,3.6,0.4,4.8,1.3
		c1.2,0.9,2,2,2.5,3.4c0.5,1.4,0.8,3,0.8,4.7v18.8c0,0.8,0.3,1.4,0.8,2s1.2,0.8,2,0.8s1.4-0.3,2-0.8c0.5-0.5,0.8-1.2,0.8-2V96.3
		C768,93.6,767.6,91.2,766.8,89L766.8,89z"/>
</g>
</svg>
