<?xml version="1.0" encoding="utf-8"?>
<!-- Generator: Adobe Illustrator 27.0.0, SVG Export Plug-In . SVG Version: 6.00 Build 0)  -->
<svg version="1.1" id="Layer_3" xmlns="http://www.w3.org/2000/svg" xmlns:xlink="http://www.w3.org/1999/xlink" x="0px" y="0px"
	 viewBox="0 0 528 558.5" style="enable-background:new 0 0 528 558.5;" xml:space="preserve">
<style type="text/css">
	.st0{fill:#529040;}
	.st1{fill:#06659E;}
</style>
<g>
	<path class="st0" d="M393.9,292.4c0-0.4-0.7-0.7-2.2-1.9c-8.2,23-17.1,45.4-39.5,58.1l0-0.1c-12.9,9.1-26.1,16.5-43.4,10.9
		c5.5-14,26.7-17.3,22.2-36.3c-36.6,10.1-63.8,40.2-66.9,75.8c0-1.1-0.1-2.2-0.1-3.3c-1.3-19-11.1-35.9-26.3-47.5
		c-12.3-9.4-25.5-17.6-39.6-27.1c-5.4,21,15.5,24.4,21.1,37.5c-6.3,4.2-12.9,4.1-19.5,2c-26.9-8.6-46-25.8-56.4-52.3
		c-2.2-5.7-4.5-11.4-6.7-17.1c-0.9,0.2-1.9,0.4-2.8,0.5c0.6,6.5,0.5,13.1,2,19.4c8.3,33.4,29.6,56.7,58.8,73.5
		c8.3,4.8,16.5,9.8,24.4,15.1c7.8,5.2,11.5,13,12.3,22.2c4.2,45.4-1.1,89.6-13.2,132.8c14.1,5.3,68.8,5.3,83.2,0
		c-3.9-16.1-13.1-42.1-14.9-56.2c-2.2-18.1-3.9-36.5-2.8-54.6c1.2-20.5,13.1-36.2,30.1-47.6c14.5-9.7,30.2-18,43.6-29.1
		c21.6-17.9,34.8-41.1,36.8-69.8C394.3,295.6,394.1,294,393.9,292.4L393.9,292.4z"/>
	<path class="st0" d="M204.9,49.9c-28.2,19.2-31.1,71.8-4.3,93.7c2.3-17.7,4.5-34.6,6.7-51.5l1.8,0.1c-1,18.1-2,36.1-2.9,53.7
		C230.7,131.8,238.5,76,204.9,49.9z"/>
	<path class="st0" d="M255.6,93.6c1.7-9.7,3.5-17.9,4.4-26.2c0.9-8.4,1-16.9,2-25.4c4.8,17.9-0.3,35.9-0.7,54.2
		c27.2-18.9,31-72.2-0.9-96.2C232.9,17.8,229.3,68.3,255.6,93.6L255.6,93.6z"/>
	<path class="st0" d="M315.8,34.1c-28,20.2-30.9,70.1-4.2,93.8c1.4-9.5,2.8-18.2,3.8-27c1-8.7,1.5-17.4,2.7-26.2
		c4.4,18.5,0.1,37-1.4,56.2C346.2,109.8,345.2,55.7,315.8,34.1L315.8,34.1z"/>
	<path class="st0" d="M183.9,171.1c-4.9-8.8-9.4-16.8-13.8-24.8c0.3-0.2,0.6-0.4,1-0.5c4.7,7.1,9.4,14.1,14.3,21.6
		c7.9-15.4-4.3-40.2-20.3-42.5c-1.2-0.2-3.4,0.9-3.9,2c-7.1,15.7,1.9,37,18.1,43C180.6,170.4,182,170.6,183.9,171.1L183.9,171.1z"/>
	<path class="st0" d="M456.4,335.3c14-7,26.7-13.3,39.3-19.6c0.4,0.5,0.7,1.1,1.1,1.6c-13.4,8-26.8,16-40.1,23.9
		c29.1,13.7,65.9-11.7,71.3-49.4C502,277,460.9,300.8,456.4,335.3L456.4,335.3z"/>
	<path class="st0" d="M126.8,230.8c5.9-21.7-5.6-41.8-23.6-43.6c-9.8,18,2.3,44.4,21.8,46.2c-2.7-4.3-5.3-8.2-7.6-12.2
		c-2.3-4.1-4.2-8.4-5.7-12.9C116.5,215.4,121.4,222.7,126.8,230.8L126.8,230.8z"/>
	<path class="st0" d="M243.9,197.6c6.7-24.7-6.4-47.5-26.9-49.6c-11.1,20.5,2.6,50.5,24.8,52.5c-3-4.9-6-9.3-8.6-13.9
		c-2.6-4.7-4.8-9.6-6.5-14.7C232.2,180.1,237.7,188.4,243.9,197.6L243.9,197.6z"/>
	<path class="st0" d="M410.5,102.9c-21.9,22.5-13.3,63.3,18.9,82.6c-2.4-16.5-4.5-31.2-6.6-45.9c0.6-0.1,1.2-0.3,1.8-0.4
		c3.5,15.6,7,31.3,10.7,47.9c8.6-10.2,11.8-21.9,10.3-34.6C443.1,129.7,430.8,113.3,410.5,102.9L410.5,102.9z"/>
	<path class="st0" d="M476.9,159.2c-30.5,11.4-42,48.8-23.7,81.5c6.2-16.1,11.8-30.8,17.5-45.5l1.7,0.5c-4.8,16-9.6,32.1-14.3,47.9
		C480.2,240.7,504,196.3,476.9,159.2L476.9,159.2z"/>
	<path class="st0" d="M403.3,316.4c10.9-7.7,21.9-15.4,32.8-23.1c0.5,0.5,0.9,1.1,1.3,1.6c-11.3,9.4-22.6,18.8-34.7,28.9
		c20.4,3.3,35.9-3.7,48.5-18.2c8.9-10.2,13.3-22.3,14.9-35.8c0.8-6.5-1.9-8.7-7.9-9.2c-18.7-1.6-40.6,11.2-49.6,30.4
		c-3.5,7.5-5.4,15.7-8,23.6C401.6,315.2,402.4,315.8,403.3,316.4L403.3,316.4z"/>
	<path class="st0" d="M124.3,325.9c-12.9-8.6-24.8-16.4-36.7-24.2c0.4-0.6,0.8-1.2,1.2-1.9c11.5,6.3,22.9,12.7,34.4,19
		c0.7-0.5,1.3-1,2-1.5c-1.7-5-3.2-10-5.2-14.9c-9.7-22.2-33.7-36.4-55.8-33.6c-7.1,0.9-9.7,3.6-8.2,11.2c6,30.4,33.2,51.5,61.9,47.5
		C119.7,327.3,121.4,326.6,124.3,325.9L124.3,325.9z"/>
	<path class="st0" d="M406.1,225.9c-5.9,10.5-11.8,21-17.7,31.6c14.3-2.1,27-13.3,29.8-28.6c1.5-8.4,0.2-17.4-0.3-26
		c-0.2-4.1-2.7-5.1-6.9-4c-14.6,4-26.6,19.1-27.5,36.3c-0.3,5.6,0.5,11.2,0.8,16.9c0.7,0.3,1.5,0.5,2.2,0.8
		c6.1-9.2,12.2-18.4,18.3-27.6C405.2,225.4,405.6,225.6,406.1,225.9L406.1,225.9z"/>
	<path class="st0" d="M0,295.4c4.7,39.2,43.6,62.8,71.6,50.4c-14.1-8.5-27.9-16.8-41.7-25.1c0.3-0.5,0.6-1.1,0.9-1.6
		c13.1,6.6,26.2,13.2,39.3,19.8c0.6-0.6,1.1-1.3,1.7-2c-3.4-15.2-11.8-27.2-24.8-36C32.6,291.3,17.1,288.6,0,295.4L0,295.4z"/>
	<path class="st0" d="M94.2,177.4c3.8-15.4,7.4-30.2,11.1-44.9c0.2-0.9,1.2-1.5,1.6-2.1c-2.1,14.6-4.1,29.2-6.3,44.9
		c24.9-11.5,41.2-49.8,23-76.7c-1.3-2-5.9-4-7.5-3.2C86.7,111,74.3,148.8,92,175C92.6,175.9,93.4,176.6,94.2,177.4L94.2,177.4z"/>
	<path class="st0" d="M62.8,209.9c4.8,12.9,9.7,25.7,14.9,39.6c18.9-26.9,8.8-70.9-21.4-80.7c-19.2,18.5-19.9,71.4,17.2,85.3
		c-4.3-14.7-8.6-29.1-12.8-43.6C61.4,210.4,62.1,210.1,62.8,209.9L62.8,209.9z"/>
	<path class="st0" d="M329.2,168.4c5.6-8.5,10.7-16.1,15.7-23.8c0.2,0,0.3,0.1,0.5,0.1c-1.2,2.9-2.3,5.8-3.7,8.6
		c-1.6,3.1-3.5,6.2-5.3,9.2c-1.7,2.8-3.6,5.6-5.5,8.6c9.5,0.2,21.5-8.8,24.6-22.4c1.6-7,0.5-14.6,0.2-21.9c-0.1-3.8-2.6-4.6-6-3.6
		c-10.8,3.2-17.3,10.8-20.8,21C326.5,151.7,326,159.4,329.2,168.4L329.2,168.4z"/>
	<path class="st0" d="M147.9,360.6c-9.8,2.5-19.2,4.9-28.5,7.3c-0.2-0.6-0.4-1.1-0.5-1.7c8.4-2.9,16.7-5.9,25.6-9
		c-18.6-14.7-46.4-8.1-57.3,12.6C104.4,387.5,138.5,382.7,147.9,360.6L147.9,360.6z"/>
	<path class="st0" d="M409.1,425.4c8.2-21-7-43.9-33.3-49.2c4.6,8.6,8.8,16.5,13,24.4c-0.5,0.3-0.9,0.6-1.4,0.8
		c-5.2-7.8-10.4-15.5-15.6-23.4C362,395,382.4,425,409.1,425.4L409.1,425.4z"/>
	<path class="st0" d="M175.2,386.2c-6.1,9-11.8,17.4-17.4,25.8c-0.4-0.3-0.9-0.6-1.3-0.9c4.5-8.2,9.1-16.5,13.8-25
		c-23.5,0.9-41.5,27.5-33.2,47.9C161.1,435.5,183.5,407.9,175.2,386.2z"/>
	<path class="st0" d="M422.7,362.3c-10-2.5-19.9-4.9-29.8-7.4c5.2,21.4,43.2,25.8,59.8,9.8c-7.5-20.9-37.6-28.6-57.2-13.4
		c9.7,3.3,18.5,6.3,27.4,9.3C422.8,361.1,422.8,361.7,422.7,362.3L422.7,362.3z"/>
	<path class="st0" d="M374.7,93.9c-2.1,7.5-4.2,14.9-6.3,22.5c18.4-5.3,20.9-33.4,11.2-46.3c-0.9-1.2-5.6-1.1-7.4,0.1
		c-9.4,6.4-13,16-12.3,27c0.3,5.3,2,10.5,3.1,15.8c0.8,0.2,1.6,0.3,2.4,0.4c2.8-6.6,5.5-13.2,8.3-19.8
		C374,93.7,374.3,93.8,374.7,93.9L374.7,93.9z"/>
	<path class="st0" d="M164,104.8c10.3-18.9,4.5-39.4-12.4-46.4c-13.8,15.2-9.6,40,9.1,49.1c-2-6.8-3.7-12.9-5.5-18.9
		c0.5-0.2,1-0.4,1.4-0.5C159.1,93.4,161.4,98.8,164,104.8L164,104.8z"/>
	<path class="st0" d="M496.4,268c17-0.8,30.1-25.9,20.3-44.7c-18.6,3.2-29,21.4-23,41.8c3.5-4.5,6.5-8.6,9.6-12.6
		c0.4,0.2,0.8,0.4,1.2,0.6C501.9,258,499.3,262.8,496.4,268L496.4,268z"/>
	<path class="st0" d="M264.6,131.7c0.7,7.8,1.5,15.6,2.3,24.7c6.8-5.4,8.4-12.5,8.3-19.5c-0.2-12.7-5.6-23-16.6-29.9
		c-13.8,12.7-12.4,34,3.6,47.7c0-8.2,0-15.6,0-23C263,131.7,263.8,131.7,264.6,131.7L264.6,131.7z"/>
	<path class="st0" d="M35.7,267.9c-3.6-6.2-6.7-11.7-9.9-17.3c0.4-0.3,0.8-0.5,1.2-0.8c3.6,4.8,7.2,9.6,11.1,14.8
		c6.6-18.6-3.1-36.2-21.8-41.6C5.5,235.3,15.8,267.2,35.7,267.9L35.7,267.9z"/>
</g>
<path class="st1" d="M366.3,231.3c-8.7,0-17.1,0.9-25.2,2.5l9.1-45.3c0.6-3-1.4-6-4.4-6.6c-3.1-0.6-6,1.4-6.6,4.4L329,236.7
	c-9.6,2.7-18.6,6.3-27,10.3l11.8-58.6c0.6-3-1.4-6-4.4-6.6c-3.1-0.6-6,1.4-6.6,4.4l-13.6,67.6c-19.8,11.4-35.1,24.6-43.6,32.9
	l-7.3-40.6c-0.4-2.3-2.2-4.1-4.4-4.5c-2.3-0.4-4.6,0.5-5.8,2.5l-26.2,40.3c-6.2-25-20.6-77.1-35.9-92.6c-2.2-2.2-5.8-2.2-8,0
	s-2.2,5.8-0.1,8c14.4,14.5,30.9,77.1,36,100c0.5,2.2,2.3,3.9,4.5,4.3c0.3,0.1,0.7,0.1,1,0.1c1.9,0,3.7-1,4.7-2.6l25.6-39.4l6.7,37.4
	c0.4,2.1,1.9,3.8,4,4.4c2.1,0.6,4.3-0.1,5.7-1.7c0.3-0.3,15.6-17.3,40-33.1l-5.7,28.2c-0.6,3,1.4,6,4.4,6.6c0.4,0.1,0.8,0.1,1.1,0.1
	c2.6,0,5-1.9,5.5-4.5l7.7-38.2c8.4-4.6,17.6-8.8,27.4-12l-9.7,48c-0.6,3,1.4,6,4.4,6.6c0.4,0.1,0.8,0.1,1.1,0.1c2.6,0,5-1.9,5.5-4.5
	l10.8-53.7c8.8-2.1,18.1-3.3,27.6-3.3c3.1,0,5.6-2.5,5.6-5.6C371.9,233.8,369.4,231.3,366.3,231.3L366.3,231.3z"/>
</svg>
